# xmcd
#
# Track frame offsets: 
#        150
#        16944
#        38544
#        60069
#        81294
#        104694
#        127644
#        143919
#
# Disc length: 2241 seconds
#
# Revision: 0
# Processed by: cddbd v1.5.2PL0 Copyright (c) Steve Scherf et al.
# Submitted via: ExactAudioCopy v1.3
#
DISCID=5608bf08
DTITLE=Stazma The Junglechrist - Itch
DYEAR=2016
DGENRE=Electronic
TTITLE0=Infinity... And Beyond
TTITLE1=Unstable Choir
TTITLE2=Allergic Itching
TTITLE3=Minor Manifesto
TTITLE4=The Hammer
TTITLE5=Noise and Acid
TTITLE6=Noise and Acid (Stunt Remix)
TTITLE7=Unstable Choir (Les Tête Au Fond Du Lac Monster X Remix)
EXTD=
EXTT0=
EXTT1=
EXTT2=
EXTT3=
EXTT4=
EXTT5=
EXTT6=
EXTT7=
PLAYORDER=
